# xmcd CD database file
#
# Track frame offsets:
#	182
#	11232
#	23082
#	37782
#	49032
#	63057
#	76182
#	95007
#	104757
#	119307
#	146157
#	160632
#	176907
#	197432
#	216957
#	231882
#	245607
#	256182
#	269757
#	283257
#
# Disc length: 3824 seconds
#
# Revision: 0
# Processed by: cddbd v1.5.1PL2 Copyright (c) Steve Scherf et al.
# Submitted via: CDex 1.51
#
DISCID=1f0eee14
DTITLE=Country Street - Country Street Station Vol.3
DYEAR=1900
DGENRE=Country
TTITLE0=Danny Davis and Nashville Brass - It´s Country Time
TTITLE1=Faron Young - Wine me up
TTITLE2=Atlanta - Good Time Chariot
TTITLE3=Karen Tylor Good - Country Boy´s Song
TTITLE4=Freedy Fender - The Rain Came
TTITLE5=Tammy Wynette - Stand by your Man
TTITLE6=Georg Jones - Bartender Blues
TTITLE7=Nitty Gritti Dirt Band - High Horse
TTITLE8=Lynn Anderson - Cry
TTITLE9=Medley - Mix
TTITLE10=The Osmonds - Yes, Maám
TTITLE11=Mickey Gilley - You need a Lady in your Life
TTITLE12=Patsy Cline - Medley
TTITLE13=The Bellamy Brothers - If I said you had a beautyfull Body
TTITLE14=Barbara Fairchild - Rocky Top
TTITLE15=Jonny Rodriguez - Desperados
TTITLE16=Mel Tillis  Stay all Night
TTITLE17=Tanya Tucker - Pecos Promenade
TTITLE18=Ronny Robbins - El Paso 2´50
TTITLE19=Danny Davis and Nashville Brass - Trailer It´s Country Time
EXTD=
EXTT0=
EXTT1=
EXTT2=
EXTT3=
EXTT4=
EXTT5=
EXTT6=
EXTT7=
EXTT8=
EXTT9=
EXTT10=
EXTT11=
EXTT12=
EXTT13=
EXTT14=
EXTT15=
EXTT16=
EXTT17=
EXTT18=
EXTT19=
PLAYORDER=
